<?xml version="1.0" encoding="utf-8"?><svg viewBox="0 0 47 29" xmlns="http://www.w3.org/2000/svg" xmlns:xlink="http://www.w3.org/1999/xlink"><style>:root>svg{display:none}:root>svg:target{display:block}</style><svg fill="none" viewBox="0 0 25 25" id="close" xmlns="http://www.w3.org/2000/svg"><path d="M14.79 12.5l9.735-9.735a1.617 1.617 0 000-2.29 1.618 1.618 0 00-2.29 0L12.5 10.21 2.765.475a1.618 1.618 0 00-2.29 0 1.617 1.617 0 000 2.29L10.21 12.5.475 22.235a1.617 1.617 0 001.145 2.764c.415 0 .83-.158 1.145-.474L12.5 14.79l9.735 9.735a1.615 1.615 0 001.145.474 1.617 1.617 0 001.145-2.765L14.79 12.5z" fill="#455667"/></svg><svg fill="none" viewBox="0 0 47 29" id="msgs" xmlns="http://www.w3.org/2000/svg"><circle cx="32.819" cy="14.819" r="14.181" fill="#1C8ADB"/><path d="M29.587 17.811l-.298 4.186c.426 0 .61-.183.832-.403l1.996-1.907 4.136 3.029c.758.422 1.293.2 1.497-.698l2.715-12.722h.001c.24-1.122-.405-1.56-1.145-1.285l-15.958 6.11c-1.089.422-1.072 1.03-.185 1.304l4.08 1.27 9.477-5.93c.446-.296.851-.132.518.163l-7.666 6.883z" fill="#fff"/><circle cx="14.181" cy="14.819" r="14.181" fill="#4BB53F"/><path d="M20.324 17.95c-1.01-.863-2.036-1.387-3.034-.524l-.595.521c-.436.379-1.247 2.148-4.381-1.458-3.134-3.6-1.269-4.161-.832-4.536l.599-.522c.993-.865.618-1.954-.098-3.074l-.432-.68c-.72-1.117-1.502-1.851-2.498-.988l-.538.47c-.44.32-1.67 1.362-1.967 3.34-.36 2.375.773 5.094 3.367 8.078 2.592 2.984 5.128 4.483 7.532 4.457 1.997-.021 3.203-1.093 3.58-1.483l.54-.47c.992-.863.376-1.741-.635-2.607l-.608-.523z" fill="#fff"/></svg><svg fill="none" viewBox="0 0 29 29" id="tg" xmlns="http://www.w3.org/2000/svg"><circle cx="14.181" cy="14.181" r="14.181" fill="#1C8ADB"/><path d="M10.949 17.173l-.298 4.186c.426 0 .61-.183.832-.403l1.996-1.907 4.136 3.029c.758.423 1.293.2 1.498-.698l2.714-12.722h.001c.24-1.122-.405-1.56-1.144-1.285l-15.959 6.11c-1.089.422-1.072 1.03-.185 1.304l4.08 1.27 9.477-5.93c.446-.296.851-.132.518.163l-7.666 6.883z" fill="#fff"/></svg></svg>